<?xml version="1.0"?>
<svg xmlns="http://www.w3.org/2000/svg" xmlns:xlink="http://www.w3.org/1999/xlink" version="1.1" id="Capa_1" x="0px" y="0px" viewBox="0 0 512 512" style="enable-background:new 0 0 512 512;" xml:space="preserve" width="512px" height="512px" class=""><g><g>
	<g>
		<path d="M450.963,254.954v-14.997h45.991c8.282,0,14.997-6.715,14.997-14.997V164.97c0.001-8.283-6.714-14.998-14.996-14.998    h-51.138c-7.388-20.832-22.24-38.159-41.329-48.748c10.203-10.759,16.482-25.273,16.482-41.235C420.97,26.911,394.059,0,360.981,0    s-59.989,26.911-59.989,59.989c0,15.962,6.279,30.476,16.481,41.235c-19.089,10.589-33.942,27.916-41.329,48.748h-40.288    c-7.388-20.832-22.24-38.159-41.329-48.748c10.203-10.759,16.482-25.273,16.482-41.235C211.009,26.911,184.098,0,151.02,0    c-33.078,0-59.989,26.911-59.989,59.989c0,15.962,6.279,30.476,16.481,41.235c-19.089,10.589-33.942,27.916-41.329,48.748H15.045    c-8.282,0-14.997,6.715-14.997,14.997v59.989c0,8.282,6.715,14.997,14.997,14.997h45.991v14.997    c0,19.552,12.537,36.232,29.994,42.422v109.55c0,24.808,20.183,44.992,44.992,44.992h29.994c24.808,0,44.992-20.183,44.992-44.992    v-109.55c17.458-6.19,29.994-22.87,29.994-42.422v-14.997h29.994v14.997c0,19.552,12.537,36.232,29.994,42.422v109.55    c0,24.808,20.183,44.992,44.992,44.992h16.295c6.913,34.14,37.096,59.968,73.259,60.084c0.082,0,0.164,0,0.246,0    c41.345,0,75.847-33.376,75.978-74.748c0.131-41.453-34.291-75.092-75.748-75.223c-0.081,0-0.161,0-0.242,0    c-5.066,0-10.015,0.511-14.803,1.475v-66.128C438.427,291.186,450.963,274.506,450.963,254.954z M450.964,179.967h30.994v29.994    h-30.994V179.967z M61.037,209.961H30.042v-29.994h30.994V209.961z M151.02,29.994c16.539,0,29.994,13.456,29.994,29.994    s-13.456,29.994-29.994,29.994c-16.539,0-29.994-13.456-29.994-29.994S134.481,29.994,151.02,29.994z M181.014,406.924    c0,8.269-6.728,14.997-14.997,14.997h-29.994c-8.269,0-14.997-6.728-14.997-14.997v-106.98h59.989V406.924z M211.009,254.953    c0,8.269-6.728,14.997-14.997,14.997h-89.983c-8.269,0-14.997-6.728-14.997-14.997v-74.986c0-33.078,26.911-59.989,59.989-59.989    c33.078,0,59.989,26.911,59.989,59.989V254.953z M270.998,209.961h-29.994v-29.994h29.994V209.961z M360.981,29.994    c16.539,0,29.994,13.456,29.994,29.994s-13.456,29.994-29.994,29.994c-16.539,0-29.994-13.456-29.994-29.994    S344.442,29.994,360.981,29.994z M362.321,421.922h-16.338c-8.269,0-14.997-6.728-14.997-14.997v-106.98h59.989v76.976    C376.521,387.723,366.078,403.613,362.321,421.922z M435.774,392.022c0.047,0,0.098,0,0.145,0    c24.93,0.079,45.927,20.748,45.849,45.134c-0.077,24.343-21.123,44.85-45.99,44.85c-0.048,0-0.097,0-0.144,0    c-23.644-0.076-44.659-18.813-44.659-45.087C390.975,411.032,411.902,392.022,435.774,392.022z M405.973,269.95h-89.983    c-8.269,0-14.997-6.728-14.997-14.997v-74.986c0-33.078,26.911-59.989,59.989-59.989s59.989,26.911,59.989,59.989v74.986    C420.97,263.222,414.242,269.95,405.973,269.95z" data-original="#000000" class="active-path" data-old_color="#EDEAEA" fill="#EEEBEB"/>
	</g>
</g></g> </svg>
